<svg 
 xmlns="http://www.w3.org/2000/svg"
 xmlns:xlink="http://www.w3.org/1999/xlink"
 width="137px" height="138px">
<defs>
<filter id="Filter_0">
    <feFlood flood-color="rgb(145, 170, 89)" flood-opacity="1" result="floodOut" />
    <feComposite operator="atop" in="floodOut" in2="SourceGraphic" result="compOut" />
    <feBlend mode="normal" in="compOut" in2="SourceGraphic" />
</filter>

</defs>
<g filter="url(#Filter_0)">
<path fill-rule="evenodd"  fill="rgb(169, 182, 141)"
 d="M43.482,49.603 C40.194,49.520 37.591,46.788 37.668,43.500 C37.744,40.212 40.471,37.614 43.758,37.697 C47.046,37.780 49.649,40.512 49.573,43.800 C49.496,47.088 46.769,49.685 43.482,49.603 Z"/>
<path fill-rule="evenodd"  opacity="0.702" fill="rgb(169, 182, 141)"
 d="M44.358,11.902 C41.071,11.820 38.468,9.087 38.544,5.799 C38.620,2.512 41.347,-0.086 44.635,-0.003 C47.922,0.079 50.525,2.811 50.449,6.099 C50.372,9.387 47.646,11.985 44.358,11.902 Z"/>
<path fill-rule="evenodd"  fill="rgb(169, 182, 141)"
 d="M41.729,125.004 C38.442,124.921 35.839,122.189 35.915,118.901 C35.992,115.614 38.719,113.016 42.006,113.099 C45.294,113.182 47.897,115.913 47.820,119.201 C47.744,122.489 45.017,125.087 41.729,125.004 Z"/>
<path fill-rule="evenodd"  fill="rgb(169, 182, 141)"
 d="M83.142,95.280 C76.020,95.101 70.380,89.181 70.545,82.058 C70.711,74.935 76.619,69.305 83.742,69.485 C90.865,69.664 96.505,75.583 96.339,82.706 C96.174,89.829 90.265,95.459 83.142,95.280 Z"/>
<path fill-rule="evenodd"  fill="rgb(169, 182, 141)"
 d="M84.019,56.579 C76.896,56.400 71.256,50.479 71.421,43.357 C71.587,36.233 77.495,30.604 84.618,30.783 C91.741,30.963 97.381,36.882 97.215,44.006 C97.050,51.129 91.141,56.758 84.019,56.579 Z"/>
<path fill-rule="evenodd"  fill="rgb(169, 182, 141)"
 d="M85.079,10.941 C82.340,10.872 80.171,8.595 80.234,5.856 C80.298,3.116 82.570,0.951 85.310,1.020 C88.049,1.089 90.219,3.366 90.155,6.105 C90.091,8.845 87.819,11.010 85.079,10.941 Z"/>
<path fill-rule="evenodd"  stroke="rgb(169, 182, 141)" stroke-width="6px" stroke-linecap="butt" stroke-linejoin="miter" opacity="0.702" fill="none"
 d="M82.266,131.980 C75.143,131.801 69.503,125.881 69.669,118.758 C69.834,111.635 75.743,106.006 82.866,106.185 C89.989,106.364 95.628,112.284 95.463,119.407 C95.297,126.530 89.389,132.159 82.266,131.980 Z"/>
<path fill-rule="evenodd"  fill="rgb(169, 182, 141)"
 d="M41.819,91.365 C36.888,91.241 32.983,87.142 33.098,82.211 C33.212,77.280 37.303,73.382 42.234,73.507 C47.165,73.631 51.070,77.729 50.955,82.660 C50.841,87.592 46.750,91.489 41.819,91.365 Z"/>
<path fill-rule="evenodd"  fill="rgb(169, 182, 141)"
 d="M5.829,49.671 C2.541,49.588 -0.062,46.856 0.015,43.568 C0.091,40.281 2.818,37.682 6.106,37.766 C9.393,37.848 11.996,40.580 11.920,43.868 C11.843,47.156 9.116,49.754 5.829,49.671 Z"/>
<path fill-rule="evenodd"  fill="rgb(169, 182, 141)"
 d="M120.795,95.212 C113.672,95.032 108.032,89.112 108.198,81.989 C108.363,74.867 114.272,69.237 121.395,69.416 C128.518,69.595 134.157,75.515 133.992,82.639 C133.826,89.761 127.918,95.391 120.795,95.212 Z"/>
<path fill-rule="evenodd"  stroke="rgb(169, 182, 141)" stroke-width="6px" stroke-linecap="butt" stroke-linejoin="miter" opacity="0.702" fill="none"
 d="M121.810,52.559 C116.879,52.434 112.974,48.336 113.089,43.404 C113.203,38.473 117.294,34.576 122.225,34.700 C127.156,34.824 131.061,38.922 130.946,43.854 C130.831,48.785 126.741,52.682 121.810,52.559 Z"/>
</g>
</svg>