<svg 
 xmlns="http://www.w3.org/2000/svg"
 xmlns:xlink="http://www.w3.org/1999/xlink"
 width="20px" height="206px">
<path fill-rule="evenodd"  opacity="0.502" fill="rgb(0, 0, 0)"
 d="M10.812,132.000 C12.193,132.000 13.313,133.126 13.313,134.515 C13.313,135.905 12.193,137.031 10.812,137.031 C9.432,137.031 8.312,135.905 8.312,134.515 C8.312,133.126 9.432,132.000 10.812,132.000 Z"/>
<path fill-rule="evenodd"  opacity="0.502" fill="rgb(0, 0, 0)"
 d="M10.812,155.156 C12.193,155.156 13.313,156.268 13.313,157.640 C13.313,159.013 12.193,160.125 10.812,160.125 C9.432,160.125 8.312,159.013 8.312,157.640 C8.312,156.268 9.432,155.156 10.812,155.156 Z"/>
<path fill-rule="evenodd"  opacity="0.502" fill="rgb(0, 0, 0)"
 d="M10.625,178.000 C12.006,178.000 13.125,179.126 13.125,180.515 C13.125,181.905 12.006,183.031 10.625,183.031 C9.244,183.031 8.125,181.905 8.125,180.515 C8.125,179.126 9.244,178.000 10.625,178.000 Z"/>
<path fill-rule="evenodd"  opacity="0.502" fill="rgb(0, 0, 0)"
 d="M10.625,201.000 C12.006,201.000 13.125,202.119 13.125,203.500 C13.125,204.880 12.006,206.000 10.625,206.000 C9.244,206.000 8.125,204.880 8.125,203.500 C8.125,202.119 9.244,201.000 10.625,201.000 Z"/>
<path fill-rule="evenodd"  opacity="0.502" fill="rgb(0, 0, 0)"
 d="M10.625,109.000 C12.006,109.000 13.125,110.119 13.125,111.500 C13.125,112.880 12.006,114.000 10.625,114.000 C9.244,114.000 8.125,112.880 8.125,111.500 C8.125,110.119 9.244,109.000 10.625,109.000 Z"/>
<path fill-rule="evenodd"  fill="rgb(0, 0, 0)"
 d="M9.344,30.625 L11.312,30.625 L11.312,90.750 L9.344,90.750 L9.344,30.625 Z"/>
<text font-family="SFUIText" fill="rgb(0, 0, 0)" transform="matrix( 0.98242185188027, 0, 0, 1.01504343100205,3.14220426294969, 20.2030863185278)" font-size="15.763px">&#48;&#51;</text>
</svg>