<svg 
 xmlns="http://www.w3.org/2000/svg"
 xmlns:xlink="http://www.w3.org/1999/xlink"
 width="20px" height="207px">
<path fill-rule="evenodd"  opacity="0.502" fill="rgb(0, 0, 0)"
 d="M10.687,109.812 C12.051,109.812 13.156,110.932 13.156,112.312 C13.156,113.693 12.051,114.812 10.687,114.812 C9.324,114.812 8.219,113.693 8.219,112.312 C8.219,110.932 9.324,109.812 10.687,109.812 Z"/>
<path fill-rule="evenodd"  opacity="0.502" fill="rgb(0, 0, 0)"
 d="M10.687,132.843 C12.051,132.843 13.156,133.963 13.156,135.343 C13.156,136.724 12.051,137.843 10.687,137.843 C9.324,137.843 8.219,136.724 8.219,135.343 C8.219,133.963 9.324,132.843 10.687,132.843 Z"/>
<path fill-rule="evenodd"  opacity="0.502" fill="rgb(0, 0, 0)"
 d="M10.687,155.906 C12.051,155.906 13.156,157.025 13.156,158.406 C13.156,159.787 12.051,160.906 10.687,160.906 C9.324,160.906 8.219,159.787 8.219,158.406 C8.219,157.025 9.324,155.906 10.687,155.906 Z"/>
<path fill-rule="evenodd"  opacity="0.502" fill="rgb(0, 0, 0)"
 d="M10.687,178.937 C12.051,178.937 13.156,180.057 13.156,181.437 C13.156,182.818 12.051,183.937 10.687,183.937 C9.324,183.937 8.219,182.818 8.219,181.437 C8.219,180.057 9.324,178.937 10.687,178.937 Z"/>
<path fill-rule="evenodd"  opacity="0.502" fill="rgb(0, 0, 0)"
 d="M10.687,202.000 C12.051,202.000 13.156,203.119 13.156,204.500 C13.156,205.880 12.051,207.000 10.687,207.000 C9.324,207.000 8.219,205.880 8.219,204.500 C8.219,203.119 9.324,202.000 10.687,202.000 Z"/>
<path fill-rule="evenodd"  fill="rgb(0, 0, 0)"
 d="M9.219,31.625 L11.187,31.625 L11.187,91.750 L9.219,91.750 L9.219,31.625 Z"/>
<text font-family="SFUIText" fill="rgb(0, 0, 0)" transform="matrix( 0.98230962390316, 0, 0, 1.01529309621403,3.02019896735601, 20.2064567988893)" font-size="15.759px">&#48;&#50;</text>
</svg>