<svg xmlns="http://www.w3.org/2000/svg" width="77" height="76"><defs><filter id="a"><feFlood flood-color="#91AA59" flood-opacity="1" result="floodOut"/><feComposite operator="atop" in="floodOut" in2="SourceGraphic" result="compOut"/><feBlend in="compOut" in2="SourceGraphic"/></filter></defs><g filter="url(#a)"><path fill-rule="evenodd" fill="#A9B68D" d="M49.024 23.035c3.73.093 6.683 3.189 6.597 6.914a6.737 6.737 0 0 1-6.911 6.576c-3.73-.094-6.683-3.19-6.597-6.915a6.736 6.736 0 0 1 6.911-6.575zm-.012 23.889a3.123 3.123 0 0 1 3.045 3.191 3.108 3.108 0 0 1-3.19 3.035 3.122 3.122 0 0 1-3.044-3.191 3.109 3.109 0 0 1 3.189-3.035z"/><path fill-rule="evenodd" opacity=".702" fill="#A9B68D" d="M48.553 66.641a3.123 3.123 0 0 1 3.045 3.191 3.11 3.11 0 0 1-3.19 3.035 3.123 3.123 0 0 1-3.044-3.192 3.108 3.108 0 0 1 3.189-3.034z"/><path fill-rule="evenodd" fill="#A9B68D" d="M49.93 7.49a3.122 3.122 0 0 1 3.044 3.191 3.108 3.108 0 0 1-3.189 3.035 3.123 3.123 0 0 1-3.045-3.191 3.11 3.11 0 0 1 3.19-3.035zM28.244 23.035c3.73.094 6.683 3.19 6.596 6.915a6.736 6.736 0 0 1-6.91 6.576c-3.73-.094-6.684-3.19-6.597-6.915a6.738 6.738 0 0 1 6.911-6.576zm-.459 20.24c3.73.094 6.683 3.19 6.596 6.915a6.735 6.735 0 0 1-6.91 6.576c-3.73-.094-6.683-3.19-6.597-6.915a6.738 6.738 0 0 1 6.911-6.576zm-.556 23.868a2.604 2.604 0 0 1 2.538 2.66 2.592 2.592 0 0 1-2.658 2.529 2.602 2.602 0 0 1-2.537-2.66 2.59 2.59 0 0 1 2.657-2.529z"/><path stroke="#A9B68D" stroke-width="6" opacity=".702" fill="none" d="M28.703 3.842c3.73.093 6.683 3.189 6.596 6.915a6.736 6.736 0 0 1-6.91 6.575c-3.73-.094-6.684-3.189-6.597-6.915a6.736 6.736 0 0 1 6.911-6.575z"/><path fill-rule="evenodd" fill="#A9B68D" d="M68.717 25.083a4.685 4.685 0 0 1 4.567 4.787 4.663 4.663 0 0 1-4.784 4.552 4.684 4.684 0 0 1-4.567-4.787 4.663 4.663 0 0 1 4.784-4.552zm.012 21.805a3.124 3.124 0 0 1 3.045 3.192 3.11 3.11 0 0 1-3.19 3.035 3.124 3.124 0 0 1-3.044-3.192 3.109 3.109 0 0 1 3.189-3.035zM8.527 23.071c3.73.094 6.683 3.19 6.596 6.915a6.735 6.735 0 0 1-6.91 6.575c-3.73-.093-6.684-3.189-6.597-6.914a6.737 6.737 0 0 1 6.911-6.576z"/><path stroke="#A9B68D" stroke-width="6" opacity=".702" fill="none" d="M7.995 45.378a4.684 4.684 0 0 1 4.567 4.787 4.665 4.665 0 0 1-4.784 4.553 4.686 4.686 0 0 1-4.567-4.788 4.663 4.663 0 0 1 4.784-4.552z"/><path fill-rule="evenodd" fill="#2A4F37" d="M8.008 66.66a3.123 3.123 0 0 1 3.044 3.192 3.11 3.11 0 0 1-3.189 3.035 3.124 3.124 0 0 1-3.045-3.192 3.11 3.11 0 0 1 3.19-3.035z"/><path fill-rule="evenodd" fill="#A9B68D" d="M8.913 5.945a4.683 4.683 0 0 1 4.567 4.786 4.664 4.664 0 0 1-4.784 4.553 4.685 4.685 0 0 1-4.567-4.788 4.662 4.662 0 0 1 4.784-4.551z"/></g></svg>