<svg xmlns="http://www.w3.org/2000/svg" width="612" height="612"><path fill-rule="evenodd" d="M306 612C137.269 612 0 474.73 0 306 0 137.269 137.269 0 306 0c168.73 0 306 137.269 306 306 0 168.73-137.27 306-306 306zm0-572.19C159.223 39.81 39.81 159.22 39.81 306S159.223 572.192 306 572.192c146.78 0 266.19-119.415 266.19-266.192S452.777 39.81 306 39.81zm9.72 370.107c35.632 0 68.385-17.947 87.613-48.01 5.925-9.258 18.233-11.963 27.496-6.043 9.26 5.925 11.965 18.233 6.042 27.494-26.582 41.559-71.873 66.37-121.151 66.37-79.25 0-143.725-64.475-143.725-143.728 0-79.253 64.475-143.728 143.725-143.728 47.817 0 92.368 23.683 119.169 63.354 6.156 9.11 3.76 21.484-5.347 27.637-9.115 6.155-21.485 3.757-27.637-5.348-19.392-28.699-51.61-45.833-86.185-45.833-57.3 0-103.915 46.618-103.915 103.918 0 57.3 46.615 103.917 103.915 103.917z"/></svg>