<svg xmlns="http://www.w3.org/2000/svg" width="97" height="97"><path fill-rule="evenodd" d="M12.447-.005h72.106c6.848 0 12.45 5.07 12.45 12.451v72.107c0 7.381-5.602 12.45-12.45 12.45H12.447c-6.85 0-12.452-5.069-12.452-12.45V12.446c0-7.381 5.602-12.451 12.452-12.451zm58.215 10.779a4.378 4.378 0 0 0-4.367 4.367v10.453a4.38 4.38 0 0 0 4.367 4.368h10.964a4.38 4.38 0 0 0 4.366-4.368V15.141a4.379 4.379 0 0 0-4.366-4.367H70.662zm15.377 30.245h-8.538a28.402 28.402 0 0 1 1.245 8.323c0 16.135-13.501 29.215-30.155 29.215-16.651 0-30.152-13.08-30.152-29.215 0-2.893.437-5.685 1.245-8.323h-8.909v40.978a3.868 3.868 0 0 0 3.857 3.856h67.553a3.867 3.867 0 0 0 3.856-3.856V41.019h-.002zM48.59 29.411c-10.759 0-19.482 8.451-19.482 18.878 0 10.426 8.723 18.878 19.482 18.878 10.76 0 19.485-8.452 19.485-18.878 0-10.427-8.723-18.878-19.485-18.878z"/></svg>