<svg xmlns="http://www.w3.org/2000/svg" width="801" height="453"><path fill-rule="evenodd" d="M688.784 287.85c26.536 25.906 54.544 50.282 78.345 78.802 10.513 12.673 20.467 25.752 28.082 40.46 10.789 20.909 1.017 43.917-17.732 45.165l-116.544-.052c-30.059 2.494-54.038-9.607-74.199-30.158-16.137-16.434-31.079-33.926-46.595-50.916-6.36-6.944-13.018-13.478-20.971-18.643-15.91-10.326-29.721-7.164-38.812 9.429-9.26 16.876-11.36 35.563-12.269 54.372-1.248 27.442-9.544 34.657-37.111 35.913-58.913 2.778-114.825-6.135-166.765-35.853-45.793-26.2-81.303-63.185-112.21-105.057C91.826 229.778 45.742 140.187 4.323 48.085-5 27.335 1.818 16.196 24.714 15.801c38.02-.738 76.035-.686 114.1-.052 15.452.226 25.682 9.089 31.648 23.686 20.57 50.577 45.74 98.697 77.334 143.3 8.413 11.874 16.992 23.749 29.209 32.107 13.516 9.255 23.805 6.187 30.164-8.868 4.035-9.546 5.801-19.828 6.711-30.052 3.011-35.175 3.409-70.289-1.874-105.341-3.244-21.876-15.566-36.037-37.395-40.177-11.14-2.11-9.481-6.255-4.088-12.613C279.891 6.826 288.702 0 306.264 0h131.714c20.735 4.092 25.34 13.407 28.179 34.271l.112 146.3c-.225 8.077 4.035 32.045 18.584 37.391 11.643 3.806 19.319-5.509 26.305-12.892 31.536-33.469 54.043-73.023 74.15-113.98 8.924-18.009 16.595-36.713 24.032-55.4 5.508-13.867 14.154-20.69 29.775-20.388l126.765.113c3.758 0 7.562.055 11.203.678 21.361 3.64 27.214 12.829 20.616 33.688-10.395 32.725-30.62 59.996-50.396 87.394-21.141 29.251-43.75 57.5-64.715 86.924-19.261 26.87-17.731 40.413 6.196 63.751z"/></svg>