<svg xmlns="http://www.w3.org/2000/svg" width="137" height="138"><defs><filter id="a"><feFlood flood-color="#91AA59" flood-opacity="1" result="floodOut"/><feComposite operator="atop" in="floodOut" in2="SourceGraphic" result="compOut"/><feBlend in="compOut" in2="SourceGraphic"/></filter></defs><g filter="url(#a)"><path fill-rule="evenodd" fill="#A9B68D" d="M43.482 49.603a5.968 5.968 0 0 1-5.814-6.103 5.94 5.94 0 0 1 6.09-5.803 5.97 5.97 0 0 1 5.815 6.103 5.942 5.942 0 0 1-6.091 5.803z"/><path fill-rule="evenodd" opacity=".702" fill="#A9B68D" d="M44.358 11.902a5.968 5.968 0 0 1-5.814-6.103 5.94 5.94 0 0 1 6.091-5.802 5.967 5.967 0 0 1 5.814 6.102 5.94 5.94 0 0 1-6.091 5.803z"/><path fill-rule="evenodd" fill="#A9B68D" d="M41.729 125.004a5.969 5.969 0 0 1-5.814-6.103 5.94 5.94 0 0 1 6.091-5.802 5.967 5.967 0 0 1 5.814 6.102 5.94 5.94 0 0 1-6.091 5.803zM83.142 95.28c-7.122-.179-12.762-6.099-12.597-13.222.166-7.123 6.074-12.753 13.197-12.573 7.123.179 12.763 6.098 12.597 13.221-.165 7.123-6.074 12.753-13.197 12.574zM84.019 56.579c-7.123-.179-12.763-6.1-12.598-13.222.166-7.124 6.074-12.753 13.197-12.574 7.123.18 12.763 6.099 12.597 13.223-.165 7.123-6.074 12.752-13.196 12.573zM85.079 10.941a4.974 4.974 0 0 1-4.845-5.085A4.95 4.95 0 0 1 85.31 1.02a4.974 4.974 0 0 1 4.845 5.085 4.95 4.95 0 0 1-5.076 4.836z"/><path stroke="#A9B68D" stroke-width="6" opacity=".702" fill="none" d="M82.266 131.98c-7.123-.179-12.763-6.099-12.597-13.222.165-7.123 6.074-12.752 13.197-12.573 7.123.179 12.762 6.099 12.597 13.222-.166 7.123-6.074 12.752-13.197 12.573z"/><path fill-rule="evenodd" fill="#A9B68D" d="M41.819 91.365c-4.931-.124-8.836-4.223-8.721-9.154a8.91 8.91 0 0 1 9.136-8.704c4.931.124 8.836 4.222 8.721 9.153a8.91 8.91 0 0 1-9.136 8.705zM5.829 49.671a5.968 5.968 0 0 1-5.814-6.103 5.939 5.939 0 0 1 6.091-5.802 5.967 5.967 0 0 1 5.814 6.102 5.941 5.941 0 0 1-6.091 5.803zM120.795 95.212c-7.123-.18-12.763-6.1-12.597-13.223.165-7.122 6.074-12.752 13.197-12.573 7.123.179 12.762 6.099 12.597 13.223-.166 7.122-6.074 12.752-13.197 12.573z"/><path stroke="#A9B68D" stroke-width="6" opacity=".702" fill="none" d="M121.81 52.559c-4.931-.125-8.836-4.223-8.721-9.155a8.91 8.91 0 0 1 9.136-8.704c4.931.124 8.836 4.222 8.721 9.154a8.912 8.912 0 0 1-9.136 8.705z"/></g></svg>