<svg xmlns="http://www.w3.org/2000/svg" width="20" height="206"><path fill-rule="evenodd" opacity=".502" d="M10.812 132a2.508 2.508 0 0 1 2.501 2.515c0 1.39-1.12 2.516-2.501 2.516-1.38 0-2.5-1.126-2.5-2.516a2.508 2.508 0 0 1 2.5-2.515zM10.812 155.156a2.493 2.493 0 0 1 2.501 2.484 2.493 2.493 0 0 1-2.501 2.485c-1.38 0-2.5-1.112-2.5-2.485a2.492 2.492 0 0 1 2.5-2.484zM10.625 178c1.381 0 2.5 1.126 2.5 2.515a2.508 2.508 0 0 1-2.5 2.516 2.508 2.508 0 0 1-2.5-2.516 2.507 2.507 0 0 1 2.5-2.515zM10.625 201a2.5 2.5 0 1 1 0 5 2.5 2.5 0 0 1 0-5zM10.625 109a2.5 2.5 0 1 1 0 5 2.5 2.5 0 0 1 0-5z"/><path fill-rule="evenodd" d="M9.344 30.625h1.968V90.75H9.344V30.625z"/><text font-family="SFUIText" transform="matrix(.98242 0 0 1.01504 3.142 20.203)" font-size="15.763">03</text></svg>