<svg 
 xmlns="http://www.w3.org/2000/svg"
 xmlns:xlink="http://www.w3.org/1999/xlink"
 width="77px" height="76px">
<defs>
<filter id="Filter_0">
    <feFlood flood-color="rgb(145, 170, 89)" flood-opacity="1" result="floodOut" />
    <feComposite operator="atop" in="floodOut" in2="SourceGraphic" result="compOut" />
    <feBlend mode="normal" in="compOut" in2="SourceGraphic" />
</filter>

</defs>
<g filter="url(#Filter_0)">
<path fill-rule="evenodd"  fill="rgb(169, 182, 141)"
 d="M49.024,23.035 C52.754,23.128 55.707,26.224 55.621,29.949 C55.534,33.675 52.440,36.619 48.710,36.525 C44.980,36.431 42.027,33.335 42.113,29.610 C42.200,25.885 45.294,22.941 49.024,23.035 Z"/>
<path fill-rule="evenodd"  fill="rgb(169, 182, 141)"
 d="M49.012,46.924 C50.734,46.967 52.097,48.396 52.057,50.115 C52.017,51.835 50.589,53.194 48.867,53.150 C47.146,53.107 45.783,51.678 45.823,49.959 C45.863,48.239 47.291,46.881 49.012,46.924 Z"/>
<path fill-rule="evenodd"  opacity="0.702" fill="rgb(169, 182, 141)"
 d="M48.553,66.641 C50.275,66.684 51.638,68.113 51.598,69.832 C51.558,71.551 50.130,72.910 48.408,72.867 C46.687,72.824 45.324,71.395 45.364,69.675 C45.404,67.956 46.832,66.597 48.553,66.641 Z"/>
<path fill-rule="evenodd"  fill="rgb(169, 182, 141)"
 d="M49.930,7.490 C51.651,7.533 53.014,8.962 52.974,10.681 C52.934,12.401 51.506,13.760 49.785,13.716 C48.063,13.673 46.700,12.244 46.740,10.525 C46.780,8.805 48.208,7.447 49.930,7.490 Z"/>
<path fill-rule="evenodd"  fill="rgb(169, 182, 141)"
 d="M28.244,23.035 C31.974,23.129 34.927,26.225 34.840,29.950 C34.754,33.675 31.660,36.620 27.930,36.526 C24.200,36.432 21.246,33.336 21.333,29.611 C21.420,25.886 24.514,22.942 28.244,23.035 Z"/>
<path fill-rule="evenodd"  fill="rgb(169, 182, 141)"
 d="M27.785,43.275 C31.515,43.369 34.468,46.465 34.381,50.190 C34.295,53.916 31.201,56.860 27.471,56.766 C23.741,56.672 20.788,53.576 20.874,49.851 C20.961,46.126 24.055,43.182 27.785,43.275 Z"/>
<path fill-rule="evenodd"  fill="rgb(169, 182, 141)"
 d="M27.229,67.143 C28.664,67.180 29.800,68.370 29.767,69.803 C29.733,71.236 28.543,72.368 27.109,72.332 C25.674,72.296 24.538,71.105 24.572,69.672 C24.605,68.240 25.795,67.107 27.229,67.143 Z"/>
<path fill-rule="evenodd"  stroke="rgb(169, 182, 141)" stroke-width="6px" stroke-linecap="butt" stroke-linejoin="miter" opacity="0.702" fill="none"
 d="M28.703,3.842 C32.433,3.935 35.386,7.031 35.299,10.757 C35.212,14.482 32.119,17.426 28.389,17.332 C24.659,17.238 21.705,14.143 21.792,10.417 C21.879,6.692 24.973,3.748 28.703,3.842 Z"/>
<path fill-rule="evenodd"  fill="rgb(169, 182, 141)"
 d="M68.717,25.083 C71.299,25.148 73.344,27.291 73.284,29.870 C73.224,32.449 71.082,34.487 68.500,34.422 C65.917,34.357 63.873,32.214 63.933,29.635 C63.993,27.056 66.135,25.018 68.717,25.083 Z"/>
<path fill-rule="evenodd"  fill="rgb(169, 182, 141)"
 d="M68.729,46.888 C70.451,46.932 71.814,48.360 71.774,50.080 C71.734,51.799 70.306,53.158 68.584,53.115 C66.863,53.071 65.500,51.642 65.540,49.923 C65.580,48.203 67.008,46.845 68.729,46.888 Z"/>
<path fill-rule="evenodd"  fill="rgb(169, 182, 141)"
 d="M8.527,23.071 C12.257,23.165 15.210,26.261 15.123,29.986 C15.037,33.711 11.943,36.655 8.213,36.561 C4.483,36.468 1.529,33.372 1.616,29.647 C1.703,25.921 4.797,22.977 8.527,23.071 Z"/>
<path fill-rule="evenodd"  stroke="rgb(169, 182, 141)" stroke-width="6px" stroke-linecap="butt" stroke-linejoin="miter" opacity="0.702" fill="none"
 d="M7.995,45.378 C10.578,45.443 12.622,47.586 12.562,50.165 C12.502,52.744 10.360,54.782 7.778,54.718 C5.196,54.653 3.151,52.509 3.211,49.930 C3.271,47.351 5.413,45.313 7.995,45.378 Z"/>
<path fill-rule="evenodd"  fill="rgb(42, 79, 55)"
 d="M8.008,66.660 C9.729,66.703 11.092,68.132 11.052,69.852 C11.012,71.571 9.584,72.930 7.863,72.887 C6.141,72.843 4.778,71.414 4.818,69.695 C4.858,67.976 6.286,66.617 8.008,66.660 Z"/>
<path fill-rule="evenodd"  fill="rgb(169, 182, 141)"
 d="M8.913,5.945 C11.495,6.009 13.540,8.152 13.480,10.731 C13.420,13.310 11.278,15.349 8.696,15.284 C6.114,15.219 4.069,13.076 4.129,10.496 C4.189,7.917 6.331,5.879 8.913,5.945 Z"/>
</g>
</svg>