<svg 
 xmlns="http://www.w3.org/2000/svg"
 xmlns:xlink="http://www.w3.org/1999/xlink"
 width="73px" height="94px">
<defs>
<filter id="Filter_0">
    <feFlood flood-color="rgb(145, 170, 89)" flood-opacity="1" result="floodOut" />
    <feComposite operator="atop" in="floodOut" in2="SourceGraphic" result="compOut" />
    <feBlend mode="normal" in="compOut" in2="SourceGraphic" />
</filter>

</defs>
<g filter="url(#Filter_0)">
<path fill-rule="evenodd"  fill="rgb(169, 182, 141)"
 d="M8.787,63.590 C4.089,63.472 0.370,59.565 0.479,54.864 C0.589,50.163 4.485,46.448 9.182,46.566 C13.879,46.684 17.598,50.591 17.489,55.292 C17.380,59.994 13.484,63.708 8.787,63.590 Z"/>
<path fill-rule="evenodd"  fill="rgb(169, 182, 141)"
 d="M8.801,33.443 C6.633,33.389 4.917,31.586 4.967,29.416 C5.018,27.246 6.816,25.532 8.984,25.586 C11.152,25.641 12.868,27.444 12.818,29.614 C12.767,31.784 10.969,33.498 8.801,33.443 Z"/>
<path fill-rule="evenodd"  fill="rgb(169, 182, 141)"
 d="M34.955,63.589 C30.258,63.471 26.539,59.564 26.648,54.863 C26.757,50.162 30.653,46.446 35.350,46.565 C40.047,46.683 43.767,50.590 43.657,55.291 C43.548,59.992 39.652,63.707 34.955,63.589 Z"/>
<path fill-rule="evenodd"  fill="rgb(169, 182, 141)"
 d="M35.533,38.048 C30.836,37.929 27.116,34.023 27.226,29.321 C27.335,24.620 31.231,20.905 35.928,21.023 C40.625,21.142 44.344,25.048 44.235,29.749 C44.126,34.450 40.230,38.166 35.533,38.048 Z"/>
<path fill-rule="evenodd"  fill="rgb(169, 182, 141)"
 d="M36.232,7.928 C34.426,7.882 32.995,6.379 33.037,4.571 C33.079,2.763 34.578,1.335 36.384,1.380 C38.191,1.426 39.621,2.928 39.579,4.736 C39.537,6.544 38.039,7.973 36.232,7.928 Z"/>
<path fill-rule="evenodd"  stroke="rgb(169, 182, 141)" stroke-width="6px" stroke-linecap="butt" stroke-linejoin="miter" opacity="0.702" fill="none"
 d="M34.377,87.810 C29.680,87.692 25.961,83.785 26.070,79.084 C26.179,74.383 30.075,70.668 34.772,70.786 C39.470,70.905 43.189,74.811 43.080,79.512 C42.970,84.213 39.074,87.929 34.377,87.810 Z"/>
<path fill-rule="evenodd"  fill="rgb(169, 182, 141)"
 d="M59.785,63.544 C55.088,63.426 51.368,59.519 51.478,54.818 C51.587,50.117 55.483,46.402 60.180,46.520 C64.877,46.638 68.596,50.545 68.487,55.246 C68.378,59.947 64.482,63.662 59.785,63.544 Z"/>
<path fill-rule="evenodd"  stroke="rgb(169, 182, 141)" stroke-width="6px" stroke-linecap="butt" stroke-linejoin="miter" opacity="0.702" fill="none"
 d="M60.454,35.394 C57.202,35.312 54.627,32.608 54.703,29.353 C54.778,26.098 57.476,23.526 60.727,23.608 C63.979,23.690 66.554,26.395 66.478,29.650 C66.403,32.904 63.705,35.476 60.454,35.394 Z"/>
<path fill-rule="evenodd"  fill="rgb(169, 182, 141)"
 d="M60.438,8.537 C58.270,8.483 56.554,6.680 56.604,4.510 C56.654,2.340 58.453,0.625 60.621,0.680 C62.788,0.735 64.505,2.538 64.455,4.707 C64.404,6.877 62.606,8.591 60.438,8.537 Z"/>
<path fill-rule="evenodd"  fill="rgb(169, 182, 141)"
 d="M59.298,85.157 C56.046,85.075 53.471,82.370 53.547,79.116 C53.622,75.861 56.320,73.289 59.572,73.371 C62.823,73.453 65.398,76.158 65.323,79.412 C65.247,82.667 62.550,85.239 59.298,85.157 Z"/>
</g>
</svg>