<svg 
 xmlns="http://www.w3.org/2000/svg"
 xmlns:xlink="http://www.w3.org/1999/xlink"
 width="612px" height="612px">
<path fill-rule="evenodd"  fill="rgb(0, 0, 0)"
 d="M306.000,612.000 C137.269,612.000 -0.000,474.730 -0.000,306.000 C-0.000,137.269 137.269,-0.000 306.000,-0.000 C474.730,-0.000 612.000,137.269 612.000,306.000 C612.000,474.730 474.730,612.000 306.000,612.000 ZM306.000,39.810 C159.223,39.810 39.810,159.220 39.810,306.000 C39.810,452.780 159.223,572.192 306.000,572.192 C452.780,572.192 572.190,452.777 572.190,306.000 C572.190,159.223 452.777,39.810 306.000,39.810 ZM315.720,409.917 C351.352,409.917 384.105,391.970 403.333,361.907 C409.258,352.649 421.566,349.944 430.829,355.864 C440.089,361.789 442.794,374.097 436.871,383.358 C410.289,424.917 364.998,449.728 315.720,449.728 C236.470,449.728 171.995,385.253 171.995,306.000 C171.995,226.747 236.470,162.272 315.720,162.272 C363.537,162.272 408.088,185.955 434.889,225.626 C441.045,234.736 438.649,247.110 429.542,253.263 C420.427,259.418 408.057,257.020 401.905,247.915 C382.513,219.216 350.295,202.082 315.720,202.082 C258.420,202.082 211.805,248.700 211.805,306.000 C211.805,363.300 258.420,409.917 315.720,409.917 Z"/>
</svg>