<svg 
 xmlns="http://www.w3.org/2000/svg"
 xmlns:xlink="http://www.w3.org/1999/xlink"
 width="15px" height="15px">
<path fill-rule="evenodd"  fill="rgb(0, 0, 0)"
 d="M12.447,-0.005 L84.553,-0.005 C91.401,-0.005 97.003,5.065 97.003,12.446 L97.003,84.553 C97.003,91.934 91.401,97.003 84.553,97.003 L12.447,97.003 C5.597,97.003 -0.005,91.934 -0.005,84.553 L-0.005,12.446 C-0.005,5.065 5.597,-0.005 12.447,-0.005 L12.447,-0.005 ZM70.662,10.774 C68.259,10.774 66.295,12.738 66.295,15.141 L66.295,25.594 C66.295,27.997 68.259,29.962 70.662,29.962 L81.626,29.962 C84.027,29.962 85.992,27.997 85.992,25.594 L85.992,15.141 C85.992,12.738 84.027,10.774 81.626,10.774 L70.662,10.774 L70.662,10.774 ZM86.039,41.019 L77.501,41.019 C78.308,43.657 78.746,46.450 78.746,49.342 C78.746,65.477 65.245,78.557 48.591,78.557 C31.940,78.557 18.439,65.477 18.439,49.342 C18.439,46.449 18.876,43.657 19.684,41.019 L10.775,41.019 L10.775,81.997 C10.775,84.117 12.510,85.853 14.632,85.853 L82.185,85.853 C84.306,85.853 86.041,84.118 86.041,81.997 L86.041,41.019 L86.039,41.019 ZM48.590,29.411 C37.831,29.411 29.108,37.862 29.108,48.289 C29.108,58.715 37.831,67.167 48.590,67.167 C59.350,67.167 68.075,58.715 68.075,48.289 C68.075,37.862 59.352,29.411 48.590,29.411 Z"/>
</svg>