<svg 
 xmlns="http://www.w3.org/2000/svg"
 xmlns:xlink="http://www.w3.org/1999/xlink"
 width="20px" height="12px">
<path fill-rule="evenodd"  fill="rgb(0, 0, 0)"
 d="M688.784,287.850 C715.320,313.756 743.328,338.132 767.129,366.652 C777.642,379.325 787.596,392.404 795.211,407.112 C806.000,428.021 796.228,451.029 777.479,452.277 L660.935,452.225 C630.876,454.719 606.897,442.618 586.736,422.067 C570.599,405.633 555.657,388.141 540.141,371.151 C533.781,364.207 527.123,357.673 519.170,352.508 C503.260,342.182 489.449,345.344 480.358,361.937 C471.098,378.813 468.998,397.500 468.089,416.309 C466.841,443.751 458.545,450.966 430.978,452.222 C372.065,455.000 316.153,446.087 264.213,416.369 C218.420,390.169 182.910,353.184 152.003,311.312 C91.826,229.778 45.742,140.187 4.323,48.085 C-5.000,27.335 1.818,16.196 24.714,15.801 C62.734,15.063 100.749,15.115 138.814,15.749 C154.266,15.975 164.496,24.838 170.462,39.435 C191.032,90.012 216.202,138.132 247.796,182.735 C256.209,194.609 264.788,206.484 277.005,214.842 C290.521,224.097 300.810,221.029 307.169,205.974 C311.204,196.428 312.970,186.146 313.880,175.922 C316.891,140.747 317.289,105.633 312.006,70.581 C308.762,48.705 296.440,34.544 274.611,30.404 C263.471,28.294 265.130,24.149 270.523,17.791 C279.891,6.826 288.702,-0.000 306.264,-0.000 L437.978,-0.000 C458.713,4.092 463.318,13.407 466.157,34.271 L466.269,180.571 C466.044,188.648 470.304,212.616 484.853,217.962 C496.496,221.768 504.172,212.453 511.158,205.070 C542.694,171.601 565.201,132.047 585.308,91.090 C594.232,73.081 601.903,54.377 609.340,35.690 C614.848,21.823 623.494,15.000 639.115,15.302 L765.880,15.415 C769.638,15.415 773.442,15.470 777.083,16.093 C798.444,19.733 804.297,28.922 797.699,49.781 C787.304,82.506 767.079,109.777 747.303,137.175 C726.162,166.426 703.553,194.675 682.588,224.099 C663.327,250.969 664.857,264.512 688.784,287.850 L688.784,287.850 Z"/>
</svg>