<svg 
 xmlns="http://www.w3.org/2000/svg"
 xmlns:xlink="http://www.w3.org/1999/xlink"
 width="19px" height="206px">
<path fill-rule="evenodd"  opacity="0.502" fill="rgb(0, 0, 0)"
 d="M9.172,132.000 C10.561,132.000 11.687,133.126 11.687,134.515 C11.687,135.905 10.561,137.031 9.172,137.031 C7.782,137.031 6.656,135.905 6.656,134.515 C6.656,133.126 7.782,132.000 9.172,132.000 Z"/>
<path fill-rule="evenodd"  opacity="0.502" fill="rgb(0, 0, 0)"
 d="M9.172,155.156 C10.561,155.156 11.687,156.268 11.687,157.640 C11.687,159.012 10.561,160.125 9.172,160.125 C7.782,160.125 6.656,159.012 6.656,157.640 C6.656,156.268 7.782,155.156 9.172,155.156 Z"/>
<path fill-rule="evenodd"  opacity="0.502" fill="rgb(0, 0, 0)"
 d="M9.984,178.000 C11.374,178.000 12.500,179.126 12.500,180.515 C12.500,181.905 11.374,183.031 9.984,183.031 C8.595,183.031 7.469,181.905 7.469,180.515 C7.469,179.126 8.595,178.000 9.984,178.000 Z"/>
<path fill-rule="evenodd"  opacity="0.502" fill="rgb(0, 0, 0)"
 d="M9.984,201.000 C11.374,201.000 12.500,202.119 12.500,203.500 C12.500,204.881 11.374,206.000 9.984,206.000 C8.595,206.000 7.469,204.881 7.469,203.500 C7.469,202.119 8.595,201.000 9.984,201.000 Z"/>
<path fill-rule="evenodd"  opacity="0.502" fill="rgb(0, 0, 0)"
 d="M9.984,109.000 C11.374,109.000 12.500,110.119 12.500,111.500 C12.500,112.881 11.374,114.000 9.984,114.000 C8.595,114.000 7.469,112.881 7.469,111.500 C7.469,110.119 8.595,109.000 9.984,109.000 Z"/>
<path fill-rule="evenodd"  fill="rgb(0, 0, 0)"
 d="M8.719,30.625 L10.687,30.625 L10.687,90.750 L8.719,90.750 L8.719,30.625 Z"/>
<text font-family="SFUIText" fill="rgb(0, 0, 0)" transform="matrix( 0.98931933705502, 0, 0, 1.01504343100205,2.59405636768747, 20.2030863185273)" font-size="15.763px">&#48;&#53;</text>
</svg>