<?xml version="1.0" encoding="UTF-8"?><!DOCTYPE svg PUBLIC "-//W3C//DTD SVG 1.1//EN" "http://www.w3.org/Graphics/SVG/1.1/DTD/svg11.dtd"><svg xmlns="http://www.w3.org/2000/svg" xmlns:xlink="http://www.w3.org/1999/xlink"><defs>
<filter id="Filter_0">
    <feFlood flood-color="rgb(145, 170, 89)" flood-opacity="1" result="floodOut"/>
    <feComposite operator="atop" in="floodOut" in2="SourceGraphic" result="compOut"/>
    <feBlend mode="normal" in="compOut" in2="SourceGraphic"/>
</filter>


<filter id="Filter_0">
    <feFlood flood-color="rgb(145, 170, 89)" flood-opacity="1" result="floodOut"/>
    <feComposite operator="atop" in="floodOut" in2="SourceGraphic" result="compOut"/>
    <feBlend mode="normal" in="compOut" in2="SourceGraphic"/>
</filter>


<filter id="Filter_0">
    <feFlood flood-color="rgb(145, 170, 89)" flood-opacity="1" result="floodOut"/>
    <feComposite operator="atop" in="floodOut" in2="SourceGraphic" result="compOut"/>
    <feBlend mode="normal" in="compOut" in2="SourceGraphic"/>
</filter>


<filter id="Filter_0">
    <feFlood flood-color="rgb(145, 170, 89)" flood-opacity="1" result="floodOut"/>
    <feComposite operator="atop" in="floodOut" in2="SourceGraphic" result="compOut"/>
    <feBlend mode="normal" in="compOut" in2="SourceGraphic"/>
</filter>

</defs><symbol id="arrow">
<path fill-rule="evenodd" stroke="rgb(200, 212, 172)" stroke-width="2px" stroke-linecap="butt" stroke-linejoin="miter" fill="none" d="M20.618,37.987 L0.986,19.502 L20.612,1.011 "/>
</symbol><symbol id="btn-arrow">
<path fill-rule="evenodd" stroke="rgb(255, 255, 255)" stroke-width="1px" stroke-linecap="butt" stroke-linejoin="miter" fill="none" d="M0.500,6.000 L69.062,6.000 L69.062,8.000 L0.500,8.000 L0.500,6.000 Z"/>
<path fill-rule="evenodd" stroke="rgb(255, 255, 255)" stroke-width="2px" stroke-linecap="butt" stroke-linejoin="miter" fill="none" d="M65.893,1.004 L72.497,6.994 L65.896,12.986 "/>
</symbol><symbol id="button-arrow">
<path fill-rule="evenodd" stroke="rgb(255, 255, 255)" stroke-width="2px" stroke-linecap="butt" stroke-linejoin="miter" fill="none" d="M2.550,1.004 L9.157,6.994 L2.552,12.986 "/>
</symbol><symbol id="circles-small">

<g filter="url(#Filter_0)">
<path fill-rule="evenodd" fill="rgb(169, 182, 141)" d="M8.787,63.590 C4.089,63.472 0.370,59.565 0.479,54.864 C0.589,50.163 4.485,46.448 9.182,46.566 C13.879,46.684 17.598,50.591 17.489,55.292 C17.380,59.994 13.484,63.708 8.787,63.590 Z"/>
<path fill-rule="evenodd" fill="rgb(169, 182, 141)" d="M8.801,33.443 C6.633,33.389 4.917,31.586 4.967,29.416 C5.018,27.246 6.816,25.532 8.984,25.586 C11.152,25.641 12.868,27.444 12.818,29.614 C12.767,31.784 10.969,33.498 8.801,33.443 Z"/>
<path fill-rule="evenodd" fill="rgb(169, 182, 141)" d="M34.955,63.589 C30.258,63.471 26.539,59.564 26.648,54.863 C26.757,50.162 30.653,46.446 35.350,46.565 C40.047,46.683 43.767,50.590 43.657,55.291 C43.548,59.992 39.652,63.707 34.955,63.589 Z"/>
<path fill-rule="evenodd" fill="rgb(169, 182, 141)" d="M35.533,38.048 C30.836,37.929 27.116,34.023 27.226,29.321 C27.335,24.620 31.231,20.905 35.928,21.023 C40.625,21.142 44.344,25.048 44.235,29.749 C44.126,34.450 40.230,38.166 35.533,38.048 Z"/>
<path fill-rule="evenodd" fill="rgb(169, 182, 141)" d="M36.232,7.928 C34.426,7.882 32.995,6.379 33.037,4.571 C33.079,2.763 34.578,1.335 36.384,1.380 C38.191,1.426 39.621,2.928 39.579,4.736 C39.537,6.544 38.039,7.973 36.232,7.928 Z"/>
<path fill-rule="evenodd" stroke="rgb(169, 182, 141)" stroke-width="6px" stroke-linecap="butt" stroke-linejoin="miter" opacity="0.702" fill="none" d="M34.377,87.810 C29.680,87.692 25.961,83.785 26.070,79.084 C26.179,74.383 30.075,70.668 34.772,70.786 C39.470,70.905 43.189,74.811 43.080,79.512 C42.970,84.213 39.074,87.929 34.377,87.810 Z"/>
<path fill-rule="evenodd" fill="rgb(169, 182, 141)" d="M59.785,63.544 C55.088,63.426 51.368,59.519 51.478,54.818 C51.587,50.117 55.483,46.402 60.180,46.520 C64.877,46.638 68.596,50.545 68.487,55.246 C68.378,59.947 64.482,63.662 59.785,63.544 Z"/>
<path fill-rule="evenodd" stroke="rgb(169, 182, 141)" stroke-width="6px" stroke-linecap="butt" stroke-linejoin="miter" opacity="0.702" fill="none" d="M60.454,35.394 C57.202,35.312 54.627,32.608 54.703,29.353 C54.778,26.098 57.476,23.526 60.727,23.608 C63.979,23.690 66.554,26.395 66.478,29.650 C66.403,32.904 63.705,35.476 60.454,35.394 Z"/>
<path fill-rule="evenodd" fill="rgb(169, 182, 141)" d="M60.438,8.537 C58.270,8.483 56.554,6.680 56.604,4.510 C56.654,2.340 58.453,0.625 60.621,0.680 C62.788,0.735 64.505,2.538 64.455,4.707 C64.404,6.877 62.606,8.591 60.438,8.537 Z"/>
<path fill-rule="evenodd" fill="rgb(169, 182, 141)" d="M59.298,85.157 C56.046,85.075 53.471,82.370 53.547,79.116 C53.622,75.861 56.320,73.289 59.572,73.371 C62.823,73.453 65.398,76.158 65.323,79.412 C65.247,82.667 62.550,85.239 59.298,85.157 Z"/>
</g>
</symbol><symbol id="circles">

<g filter="url(#Filter_0)">
<path fill-rule="evenodd" fill="rgb(169, 182, 141)" d="M49.024,23.035 C52.754,23.128 55.707,26.224 55.621,29.949 C55.534,33.675 52.440,36.619 48.710,36.525 C44.980,36.431 42.027,33.335 42.113,29.610 C42.200,25.885 45.294,22.941 49.024,23.035 Z"/>
<path fill-rule="evenodd" fill="rgb(169, 182, 141)" d="M49.012,46.924 C50.734,46.967 52.097,48.396 52.057,50.115 C52.017,51.835 50.589,53.194 48.867,53.150 C47.146,53.107 45.783,51.678 45.823,49.959 C45.863,48.239 47.291,46.881 49.012,46.924 Z"/>
<path fill-rule="evenodd" opacity="0.702" fill="rgb(169, 182, 141)" d="M48.553,66.641 C50.275,66.684 51.638,68.113 51.598,69.832 C51.558,71.551 50.130,72.910 48.408,72.867 C46.687,72.824 45.324,71.395 45.364,69.675 C45.404,67.956 46.832,66.597 48.553,66.641 Z"/>
<path fill-rule="evenodd" fill="rgb(169, 182, 141)" d="M49.930,7.490 C51.651,7.533 53.014,8.962 52.974,10.681 C52.934,12.401 51.506,13.760 49.785,13.716 C48.063,13.673 46.700,12.244 46.740,10.525 C46.780,8.805 48.208,7.447 49.930,7.490 Z"/>
<path fill-rule="evenodd" fill="rgb(169, 182, 141)" d="M28.244,23.035 C31.974,23.129 34.927,26.225 34.840,29.950 C34.754,33.675 31.660,36.620 27.930,36.526 C24.200,36.432 21.246,33.336 21.333,29.611 C21.420,25.886 24.514,22.942 28.244,23.035 Z"/>
<path fill-rule="evenodd" fill="rgb(169, 182, 141)" d="M27.785,43.275 C31.515,43.369 34.468,46.465 34.381,50.190 C34.295,53.916 31.201,56.860 27.471,56.766 C23.741,56.672 20.788,53.576 20.874,49.851 C20.961,46.126 24.055,43.182 27.785,43.275 Z"/>
<path fill-rule="evenodd" fill="rgb(169, 182, 141)" d="M27.229,67.143 C28.664,67.180 29.800,68.370 29.767,69.803 C29.733,71.236 28.543,72.368 27.109,72.332 C25.674,72.296 24.538,71.105 24.572,69.672 C24.605,68.240 25.795,67.107 27.229,67.143 Z"/>
<path fill-rule="evenodd" stroke="rgb(169, 182, 141)" stroke-width="6px" stroke-linecap="butt" stroke-linejoin="miter" opacity="0.702" fill="none" d="M28.703,3.842 C32.433,3.935 35.386,7.031 35.299,10.757 C35.212,14.482 32.119,17.426 28.389,17.332 C24.659,17.238 21.705,14.143 21.792,10.417 C21.879,6.692 24.973,3.748 28.703,3.842 Z"/>
<path fill-rule="evenodd" fill="rgb(169, 182, 141)" d="M68.717,25.083 C71.299,25.148 73.344,27.291 73.284,29.870 C73.224,32.449 71.082,34.487 68.500,34.422 C65.917,34.357 63.873,32.214 63.933,29.635 C63.993,27.056 66.135,25.018 68.717,25.083 Z"/>
<path fill-rule="evenodd" fill="rgb(169, 182, 141)" d="M68.729,46.888 C70.451,46.932 71.814,48.360 71.774,50.080 C71.734,51.799 70.306,53.158 68.584,53.115 C66.863,53.071 65.500,51.642 65.540,49.923 C65.580,48.203 67.008,46.845 68.729,46.888 Z"/>
<path fill-rule="evenodd" fill="rgb(169, 182, 141)" d="M8.527,23.071 C12.257,23.165 15.210,26.261 15.123,29.986 C15.037,33.711 11.943,36.655 8.213,36.561 C4.483,36.468 1.529,33.372 1.616,29.647 C1.703,25.921 4.797,22.977 8.527,23.071 Z"/>
<path fill-rule="evenodd" stroke="rgb(169, 182, 141)" stroke-width="6px" stroke-linecap="butt" stroke-linejoin="miter" opacity="0.702" fill="none" d="M7.995,45.378 C10.578,45.443 12.622,47.586 12.562,50.165 C12.502,52.744 10.360,54.782 7.778,54.718 C5.196,54.653 3.151,52.509 3.211,49.930 C3.271,47.351 5.413,45.313 7.995,45.378 Z"/>
<path fill-rule="evenodd" fill="rgb(42, 79, 55)" d="M8.008,66.660 C9.729,66.703 11.092,68.132 11.052,69.852 C11.012,71.571 9.584,72.930 7.863,72.887 C6.141,72.843 4.778,71.414 4.818,69.695 C4.858,67.976 6.286,66.617 8.008,66.660 Z"/>
<path fill-rule="evenodd" fill="rgb(169, 182, 141)" d="M8.913,5.945 C11.495,6.009 13.540,8.152 13.480,10.731 C13.420,13.310 11.278,15.349 8.696,15.284 C6.114,15.219 4.069,13.076 4.129,10.496 C4.189,7.917 6.331,5.879 8.913,5.945 Z"/>
</g>
</symbol><symbol id="circles2-4-3-2">

<g filter="url(#Filter_0)">
<path fill-rule="evenodd" fill="rgb(169, 182, 141)" d="M43.482,49.603 C40.194,49.520 37.591,46.788 37.668,43.500 C37.744,40.212 40.471,37.614 43.758,37.697 C47.046,37.780 49.649,40.512 49.573,43.800 C49.496,47.088 46.769,49.685 43.482,49.603 Z"/>
<path fill-rule="evenodd" opacity="0.702" fill="rgb(169, 182, 141)" d="M44.358,11.902 C41.071,11.820 38.468,9.087 38.544,5.799 C38.620,2.512 41.347,-0.086 44.635,-0.003 C47.922,0.079 50.525,2.811 50.449,6.099 C50.372,9.387 47.646,11.985 44.358,11.902 Z"/>
<path fill-rule="evenodd" fill="rgb(169, 182, 141)" d="M41.729,125.004 C38.442,124.921 35.839,122.189 35.915,118.901 C35.992,115.614 38.719,113.016 42.006,113.099 C45.294,113.182 47.897,115.913 47.820,119.201 C47.744,122.489 45.017,125.087 41.729,125.004 Z"/>
<path fill-rule="evenodd" fill="rgb(169, 182, 141)" d="M83.142,95.280 C76.020,95.101 70.380,89.181 70.545,82.058 C70.711,74.935 76.619,69.305 83.742,69.485 C90.865,69.664 96.505,75.583 96.339,82.706 C96.174,89.829 90.265,95.459 83.142,95.280 Z"/>
<path fill-rule="evenodd" fill="rgb(169, 182, 141)" d="M84.019,56.579 C76.896,56.400 71.256,50.479 71.421,43.357 C71.587,36.233 77.495,30.604 84.618,30.783 C91.741,30.963 97.381,36.882 97.215,44.006 C97.050,51.129 91.141,56.758 84.019,56.579 Z"/>
<path fill-rule="evenodd" fill="rgb(169, 182, 141)" d="M85.079,10.941 C82.340,10.872 80.171,8.595 80.234,5.856 C80.298,3.116 82.570,0.951 85.310,1.020 C88.049,1.089 90.219,3.366 90.155,6.105 C90.091,8.845 87.819,11.010 85.079,10.941 Z"/>
<path fill-rule="evenodd" stroke="rgb(169, 182, 141)" stroke-width="6px" stroke-linecap="butt" stroke-linejoin="miter" opacity="0.702" fill="none" d="M82.266,131.980 C75.143,131.801 69.503,125.881 69.669,118.758 C69.834,111.635 75.743,106.006 82.866,106.185 C89.989,106.364 95.628,112.284 95.463,119.407 C95.297,126.530 89.389,132.159 82.266,131.980 Z"/>
<path fill-rule="evenodd" fill="rgb(169, 182, 141)" d="M41.819,91.365 C36.888,91.241 32.983,87.142 33.098,82.211 C33.212,77.280 37.303,73.382 42.234,73.507 C47.165,73.631 51.070,77.729 50.955,82.660 C50.841,87.592 46.750,91.489 41.819,91.365 Z"/>
<path fill-rule="evenodd" fill="rgb(169, 182, 141)" d="M5.829,49.671 C2.541,49.588 -0.062,46.856 0.015,43.568 C0.091,40.281 2.818,37.682 6.106,37.766 C9.393,37.848 11.996,40.580 11.920,43.868 C11.843,47.156 9.116,49.754 5.829,49.671 Z"/>
<path fill-rule="evenodd" fill="rgb(169, 182, 141)" d="M120.795,95.212 C113.672,95.032 108.032,89.112 108.198,81.989 C108.363,74.867 114.272,69.237 121.395,69.416 C128.518,69.595 134.157,75.515 133.992,82.639 C133.826,89.761 127.918,95.391 120.795,95.212 Z"/>
<path fill-rule="evenodd" stroke="rgb(169, 182, 141)" stroke-width="6px" stroke-linecap="butt" stroke-linejoin="miter" opacity="0.702" fill="none" d="M121.810,52.559 C116.879,52.434 112.974,48.336 113.089,43.404 C113.203,38.473 117.294,34.576 122.225,34.700 C127.156,34.824 131.061,38.922 130.946,43.854 C130.831,48.785 126.741,52.682 121.810,52.559 Z"/>
</g>
</symbol><symbol id="copyright">
<path fill-rule="evenodd" fill="rgb(0, 0, 0)" d="M306.000,612.000 C137.269,612.000 -0.000,474.730 -0.000,306.000 C-0.000,137.269 137.269,-0.000 306.000,-0.000 C474.730,-0.000 612.000,137.269 612.000,306.000 C612.000,474.730 474.730,612.000 306.000,612.000 ZM306.000,39.810 C159.223,39.810 39.810,159.220 39.810,306.000 C39.810,452.780 159.223,572.192 306.000,572.192 C452.780,572.192 572.190,452.777 572.190,306.000 C572.190,159.223 452.777,39.810 306.000,39.810 ZM315.720,409.917 C351.352,409.917 384.105,391.970 403.333,361.907 C409.258,352.649 421.566,349.944 430.829,355.864 C440.089,361.789 442.794,374.097 436.871,383.358 C410.289,424.917 364.998,449.728 315.720,449.728 C236.470,449.728 171.995,385.253 171.995,306.000 C171.995,226.747 236.470,162.272 315.720,162.272 C363.537,162.272 408.088,185.955 434.889,225.626 C441.045,234.736 438.649,247.110 429.542,253.263 C420.427,259.418 408.057,257.020 401.905,247.915 C382.513,219.216 350.295,202.082 315.720,202.082 C258.420,202.082 211.805,248.700 211.805,306.000 C211.805,363.300 258.420,409.917 315.720,409.917 Z"/>
</symbol><symbol id="d">
<text font-family="SFUIText" fill="rgb(254, 254, 254)" transform="matrix( 0.55544914442718, 0, 0, 0.54647365155539,2.90724966308341, 5.95913143199925)" font-size="13.067px">PILATES+</text>
</symbol><symbol id="icon-fb">
<path fill-rule="evenodd" fill="rgb(0, 0, 0)" d="M50.000,15.935 L40.936,15.939 C33.831,15.939 32.455,19.306 32.455,24.247 L32.455,35.143 L49.402,35.143 L49.397,52.210 L32.455,52.210 L32.455,96.003 L14.779,96.003 L14.779,52.210 L0.001,52.210 L0.001,35.143 L14.779,35.143 L14.779,22.558 C14.779,7.952 23.726,-0.001 36.793,-0.001 L50.000,0.020 L50.000,15.935 L50.000,15.935 Z"/>
</symbol><symbol id="icon-insta">
<path fill-rule="evenodd" fill="rgb(0, 0, 0)" d="M12.447,-0.005 L84.553,-0.005 C91.401,-0.005 97.003,5.065 97.003,12.446 L97.003,84.553 C97.003,91.934 91.401,97.003 84.553,97.003 L12.447,97.003 C5.597,97.003 -0.005,91.934 -0.005,84.553 L-0.005,12.446 C-0.005,5.065 5.597,-0.005 12.447,-0.005 L12.447,-0.005 ZM70.662,10.774 C68.259,10.774 66.295,12.738 66.295,15.141 L66.295,25.594 C66.295,27.997 68.259,29.962 70.662,29.962 L81.626,29.962 C84.027,29.962 85.992,27.997 85.992,25.594 L85.992,15.141 C85.992,12.738 84.027,10.774 81.626,10.774 L70.662,10.774 L70.662,10.774 ZM86.039,41.019 L77.501,41.019 C78.308,43.657 78.746,46.450 78.746,49.342 C78.746,65.477 65.245,78.557 48.591,78.557 C31.940,78.557 18.439,65.477 18.439,49.342 C18.439,46.449 18.876,43.657 19.684,41.019 L10.775,41.019 L10.775,81.997 C10.775,84.117 12.510,85.853 14.632,85.853 L82.185,85.853 C84.306,85.853 86.041,84.118 86.041,81.997 L86.041,41.019 L86.039,41.019 ZM48.590,29.411 C37.831,29.411 29.108,37.862 29.108,48.289 C29.108,58.715 37.831,67.167 48.590,67.167 C59.350,67.167 68.075,58.715 68.075,48.289 C68.075,37.862 59.352,29.411 48.590,29.411 Z"/>
</symbol><symbol id="icon-vk">
<path fill-rule="evenodd" fill="rgb(0, 0, 0)" d="M688.784,287.850 C715.320,313.756 743.328,338.132 767.129,366.652 C777.642,379.325 787.596,392.404 795.211,407.112 C806.000,428.021 796.228,451.029 777.479,452.277 L660.935,452.225 C630.876,454.719 606.897,442.618 586.736,422.067 C570.599,405.633 555.657,388.141 540.141,371.151 C533.781,364.207 527.123,357.673 519.170,352.508 C503.260,342.182 489.449,345.344 480.358,361.937 C471.098,378.813 468.998,397.500 468.089,416.309 C466.841,443.751 458.545,450.966 430.978,452.222 C372.065,455.000 316.153,446.087 264.213,416.369 C218.420,390.169 182.910,353.184 152.003,311.312 C91.826,229.778 45.742,140.187 4.323,48.085 C-5.000,27.335 1.818,16.196 24.714,15.801 C62.734,15.063 100.749,15.115 138.814,15.749 C154.266,15.975 164.496,24.838 170.462,39.435 C191.032,90.012 216.202,138.132 247.796,182.735 C256.209,194.609 264.788,206.484 277.005,214.842 C290.521,224.097 300.810,221.029 307.169,205.974 C311.204,196.428 312.970,186.146 313.880,175.922 C316.891,140.747 317.289,105.633 312.006,70.581 C308.762,48.705 296.440,34.544 274.611,30.404 C263.471,28.294 265.130,24.149 270.523,17.791 C279.891,6.826 288.702,-0.000 306.264,-0.000 L437.978,-0.000 C458.713,4.092 463.318,13.407 466.157,34.271 L466.269,180.571 C466.044,188.648 470.304,212.616 484.853,217.962 C496.496,221.768 504.172,212.453 511.158,205.070 C542.694,171.601 565.201,132.047 585.308,91.090 C594.232,73.081 601.903,54.377 609.340,35.690 C614.848,21.823 623.494,15.000 639.115,15.302 L765.880,15.415 C769.638,15.415 773.442,15.470 777.083,16.093 C798.444,19.733 804.297,28.922 797.699,49.781 C787.304,82.506 767.079,109.777 747.303,137.175 C726.162,166.426 703.553,194.675 682.588,224.099 C663.327,250.969 664.857,264.512 688.784,287.850 L688.784,287.850 Z"/>
</symbol><symbol id="logo-text-tablet">
<text font-family="SFUIText" fill="rgb(254, 254, 254)" transform="matrix( 0.94072726157185, 0, 0, 0.91832426674714,4.24477941410957, 9.13245920036215)" font-size="13.067px">PILATES+</text>
</symbol><symbol id="logo-text">
<text font-family="SFUIText" fill="rgb(254, 254, 254)" transform="matrix( 0.55544914442718, 0, 0, 0.54647365155539,2.90724966308341, 5.95913143199925)" font-size="13.067px">PILATES+</text>
</symbol><symbol id="nav-1">

<g filter="url(#Filter_0)">
<path fill-rule="evenodd" fill="rgb(169, 182, 141)" d="M8.787,63.590 C4.089,63.472 0.370,59.565 0.479,54.864 C0.589,50.163 4.485,46.448 9.182,46.566 C13.879,46.684 17.598,50.591 17.489,55.292 C17.380,59.994 13.484,63.708 8.787,63.590 Z"/>
<path fill-rule="evenodd" fill="rgb(169, 182, 141)" d="M8.801,33.443 C6.633,33.389 4.917,31.586 4.967,29.416 C5.018,27.246 6.816,25.532 8.984,25.586 C11.152,25.641 12.868,27.444 12.818,29.614 C12.767,31.784 10.969,33.498 8.801,33.443 Z"/>
<path fill-rule="evenodd" fill="rgb(169, 182, 141)" d="M34.955,63.589 C30.258,63.471 26.539,59.564 26.648,54.863 C26.757,50.162 30.653,46.446 35.350,46.565 C40.047,46.683 43.767,50.590 43.657,55.291 C43.548,59.992 39.652,63.707 34.955,63.589 Z"/>
<path fill-rule="evenodd" fill="rgb(169, 182, 141)" d="M35.533,38.048 C30.836,37.929 27.116,34.023 27.226,29.321 C27.335,24.620 31.231,20.905 35.928,21.023 C40.625,21.142 44.344,25.048 44.235,29.749 C44.126,34.450 40.230,38.166 35.533,38.048 Z"/>
<path fill-rule="evenodd" fill="rgb(169, 182, 141)" d="M36.232,7.928 C34.426,7.882 32.995,6.379 33.037,4.571 C33.079,2.763 34.578,1.335 36.384,1.380 C38.191,1.426 39.621,2.928 39.579,4.736 C39.537,6.544 38.039,7.973 36.232,7.928 Z"/>
<path fill-rule="evenodd" stroke="rgb(169, 182, 141)" stroke-width="6px" stroke-linecap="butt" stroke-linejoin="miter" opacity="0.702" fill="none" d="M34.377,87.810 C29.680,87.692 25.961,83.785 26.070,79.084 C26.179,74.383 30.075,70.668 34.772,70.786 C39.470,70.905 43.189,74.811 43.080,79.512 C42.970,84.213 39.074,87.929 34.377,87.810 Z"/>
<path fill-rule="evenodd" fill="rgb(169, 182, 141)" d="M59.785,63.544 C55.088,63.426 51.368,59.519 51.478,54.818 C51.587,50.117 55.483,46.402 60.180,46.520 C64.877,46.638 68.596,50.545 68.487,55.246 C68.378,59.947 64.482,63.662 59.785,63.544 Z"/>
<path fill-rule="evenodd" stroke="rgb(169, 182, 141)" stroke-width="6px" stroke-linecap="butt" stroke-linejoin="miter" opacity="0.702" fill="none" d="M60.454,35.394 C57.202,35.312 54.627,32.608 54.703,29.353 C54.778,26.098 57.476,23.526 60.727,23.608 C63.979,23.690 66.554,26.395 66.478,29.650 C66.403,32.904 63.705,35.476 60.454,35.394 Z"/>
<path fill-rule="evenodd" fill="rgb(169, 182, 141)" d="M60.438,8.537 C58.270,8.483 56.554,6.680 56.604,4.510 C56.654,2.340 58.453,0.625 60.621,0.680 C62.788,0.735 64.505,2.538 64.455,4.707 C64.404,6.877 62.606,8.591 60.438,8.537 Z"/>
<path fill-rule="evenodd" fill="rgb(169, 182, 141)" d="M59.298,85.157 C56.046,85.075 53.471,82.370 53.547,79.116 C53.622,75.861 56.320,73.289 59.572,73.371 C62.823,73.453 65.398,76.158 65.323,79.412 C65.247,82.667 62.550,85.239 59.298,85.157 Z"/>
</g>
</symbol><symbol id="nav-2">
<path fill-rule="evenodd" opacity="0.502" fill="rgb(0, 0, 0)" d="M10.687,109.812 C12.051,109.812 13.156,110.932 13.156,112.312 C13.156,113.693 12.051,114.812 10.687,114.812 C9.324,114.812 8.219,113.693 8.219,112.312 C8.219,110.932 9.324,109.812 10.687,109.812 Z"/>
<path fill-rule="evenodd" opacity="0.502" fill="rgb(0, 0, 0)" d="M10.687,132.843 C12.051,132.843 13.156,133.963 13.156,135.343 C13.156,136.724 12.051,137.843 10.687,137.843 C9.324,137.843 8.219,136.724 8.219,135.343 C8.219,133.963 9.324,132.843 10.687,132.843 Z"/>
<path fill-rule="evenodd" opacity="0.502" fill="rgb(0, 0, 0)" d="M10.687,155.906 C12.051,155.906 13.156,157.025 13.156,158.406 C13.156,159.787 12.051,160.906 10.687,160.906 C9.324,160.906 8.219,159.787 8.219,158.406 C8.219,157.025 9.324,155.906 10.687,155.906 Z"/>
<path fill-rule="evenodd" opacity="0.502" fill="rgb(0, 0, 0)" d="M10.687,178.937 C12.051,178.937 13.156,180.057 13.156,181.437 C13.156,182.818 12.051,183.937 10.687,183.937 C9.324,183.937 8.219,182.818 8.219,181.437 C8.219,180.057 9.324,178.937 10.687,178.937 Z"/>
<path fill-rule="evenodd" opacity="0.502" fill="rgb(0, 0, 0)" d="M10.687,202.000 C12.051,202.000 13.156,203.119 13.156,204.500 C13.156,205.880 12.051,207.000 10.687,207.000 C9.324,207.000 8.219,205.880 8.219,204.500 C8.219,203.119 9.324,202.000 10.687,202.000 Z"/>
<path fill-rule="evenodd" fill="rgb(0, 0, 0)" d="M9.219,31.625 L11.187,31.625 L11.187,91.750 L9.219,91.750 L9.219,31.625 Z"/>
<text font-family="SFUIText" fill="rgb(0, 0, 0)" transform="matrix( 0.98230962390316, 0, 0, 1.01529309621403,3.02019896735601, 20.2064567988893)" font-size="15.759px">02</text>
</symbol><symbol id="nav-3">
<path fill-rule="evenodd" opacity="0.502" fill="rgb(0, 0, 0)" d="M10.812,132.000 C12.193,132.000 13.313,133.126 13.313,134.515 C13.313,135.905 12.193,137.031 10.812,137.031 C9.432,137.031 8.312,135.905 8.312,134.515 C8.312,133.126 9.432,132.000 10.812,132.000 Z"/>
<path fill-rule="evenodd" opacity="0.502" fill="rgb(0, 0, 0)" d="M10.812,155.156 C12.193,155.156 13.313,156.268 13.313,157.640 C13.313,159.013 12.193,160.125 10.812,160.125 C9.432,160.125 8.312,159.013 8.312,157.640 C8.312,156.268 9.432,155.156 10.812,155.156 Z"/>
<path fill-rule="evenodd" opacity="0.502" fill="rgb(0, 0, 0)" d="M10.625,178.000 C12.006,178.000 13.125,179.126 13.125,180.515 C13.125,181.905 12.006,183.031 10.625,183.031 C9.244,183.031 8.125,181.905 8.125,180.515 C8.125,179.126 9.244,178.000 10.625,178.000 Z"/>
<path fill-rule="evenodd" opacity="0.502" fill="rgb(0, 0, 0)" d="M10.625,201.000 C12.006,201.000 13.125,202.119 13.125,203.500 C13.125,204.880 12.006,206.000 10.625,206.000 C9.244,206.000 8.125,204.880 8.125,203.500 C8.125,202.119 9.244,201.000 10.625,201.000 Z"/>
<path fill-rule="evenodd" opacity="0.502" fill="rgb(0, 0, 0)" d="M10.625,109.000 C12.006,109.000 13.125,110.119 13.125,111.500 C13.125,112.880 12.006,114.000 10.625,114.000 C9.244,114.000 8.125,112.880 8.125,111.500 C8.125,110.119 9.244,109.000 10.625,109.000 Z"/>
<path fill-rule="evenodd" fill="rgb(0, 0, 0)" d="M9.344,30.625 L11.312,30.625 L11.312,90.750 L9.344,90.750 L9.344,30.625 Z"/>
<text font-family="SFUIText" fill="rgb(0, 0, 0)" transform="matrix( 0.98242185188027, 0, 0, 1.01504343100205,3.14220426294969, 20.2030863185278)" font-size="15.763px">03</text>
</symbol><symbol id="nav-5">
<path fill-rule="evenodd" opacity="0.502" fill="rgb(0, 0, 0)" d="M9.172,132.000 C10.561,132.000 11.687,133.126 11.687,134.515 C11.687,135.905 10.561,137.031 9.172,137.031 C7.782,137.031 6.656,135.905 6.656,134.515 C6.656,133.126 7.782,132.000 9.172,132.000 Z"/>
<path fill-rule="evenodd" opacity="0.502" fill="rgb(0, 0, 0)" d="M9.172,155.156 C10.561,155.156 11.687,156.268 11.687,157.640 C11.687,159.012 10.561,160.125 9.172,160.125 C7.782,160.125 6.656,159.012 6.656,157.640 C6.656,156.268 7.782,155.156 9.172,155.156 Z"/>
<path fill-rule="evenodd" opacity="0.502" fill="rgb(0, 0, 0)" d="M9.984,178.000 C11.374,178.000 12.500,179.126 12.500,180.515 C12.500,181.905 11.374,183.031 9.984,183.031 C8.595,183.031 7.469,181.905 7.469,180.515 C7.469,179.126 8.595,178.000 9.984,178.000 Z"/>
<path fill-rule="evenodd" opacity="0.502" fill="rgb(0, 0, 0)" d="M9.984,201.000 C11.374,201.000 12.500,202.119 12.500,203.500 C12.500,204.881 11.374,206.000 9.984,206.000 C8.595,206.000 7.469,204.881 7.469,203.500 C7.469,202.119 8.595,201.000 9.984,201.000 Z"/>
<path fill-rule="evenodd" opacity="0.502" fill="rgb(0, 0, 0)" d="M9.984,109.000 C11.374,109.000 12.500,110.119 12.500,111.500 C12.500,112.881 11.374,114.000 9.984,114.000 C8.595,114.000 7.469,112.881 7.469,111.500 C7.469,110.119 8.595,109.000 9.984,109.000 Z"/>
<path fill-rule="evenodd" fill="rgb(0, 0, 0)" d="M8.719,30.625 L10.687,30.625 L10.687,90.750 L8.719,90.750 L8.719,30.625 Z"/>
<text font-family="SFUIText" fill="rgb(0, 0, 0)" transform="matrix( 0.98931933705502, 0, 0, 1.01504343100205,2.59405636768747, 20.2030863185273)" font-size="15.763px">05</text>
</symbol></svg>