<svg xmlns="http://www.w3.org/2000/svg" width="73" height="94"><defs><filter id="a"><feFlood flood-color="#91AA59" flood-opacity="1" result="floodOut"/><feComposite operator="atop" in="floodOut" in2="SourceGraphic" result="compOut"/><feBlend in="compOut" in2="SourceGraphic"/></filter></defs><g filter="url(#a)"><path fill-rule="evenodd" fill="#A9B68D" d="M8.787 63.59C4.089 63.472.37 59.565.479 54.864c.11-4.701 4.006-8.416 8.703-8.298 4.697.118 8.416 4.025 8.307 8.726a8.49 8.49 0 0 1-8.702 8.298zM8.801 33.443a3.937 3.937 0 0 1-3.834-4.027 3.92 3.92 0 0 1 4.017-3.83 3.938 3.938 0 0 1 3.834 4.028 3.918 3.918 0 0 1-4.017 3.829zM34.955 63.589c-4.697-.118-8.416-4.025-8.307-8.726.109-4.701 4.005-8.417 8.702-8.298 4.697.118 8.417 4.025 8.307 8.726a8.49 8.49 0 0 1-8.702 8.298zM35.533 38.048c-4.697-.119-8.417-4.025-8.307-8.727a8.49 8.49 0 0 1 8.702-8.298c4.697.119 8.416 4.025 8.307 8.726-.109 4.701-4.005 8.417-8.702 8.299zM36.232 7.928a3.283 3.283 0 0 1-3.195-3.357 3.266 3.266 0 0 1 3.347-3.191 3.281 3.281 0 0 1 3.195 3.356 3.266 3.266 0 0 1-3.347 3.192z"/><path stroke="#A9B68D" stroke-width="6" opacity=".702" fill="none" d="M34.377 87.81c-4.697-.118-8.416-4.025-8.307-8.726a8.49 8.49 0 0 1 8.702-8.298c4.698.119 8.417 4.025 8.308 8.726-.11 4.701-4.006 8.417-8.703 8.298z"/><path fill-rule="evenodd" fill="#A9B68D" d="M59.785 63.544c-4.697-.118-8.417-4.025-8.307-8.726a8.49 8.49 0 0 1 8.702-8.298c4.697.118 8.416 4.025 8.307 8.726a8.49 8.49 0 0 1-8.702 8.298z"/><path stroke="#A9B68D" stroke-width="6" opacity=".702" fill="none" d="M60.454 35.394a5.905 5.905 0 0 1-5.751-6.041 5.878 5.878 0 0 1 6.024-5.745 5.906 5.906 0 0 1 5.751 6.042 5.877 5.877 0 0 1-6.024 5.744z"/><path fill-rule="evenodd" fill="#A9B68D" d="M60.438 8.537a3.937 3.937 0 0 1-3.834-4.027A3.919 3.919 0 0 1 60.621.68a3.938 3.938 0 0 1 3.834 4.027 3.92 3.92 0 0 1-4.017 3.83zM59.298 85.157a5.906 5.906 0 0 1-5.751-6.041 5.878 5.878 0 0 1 6.025-5.745 5.907 5.907 0 0 1 5.751 6.041 5.879 5.879 0 0 1-6.025 5.745z"/></g></svg>