<svg xmlns="http://www.w3.org/2000/svg" width="20" height="207"><path fill-rule="evenodd" opacity=".502" d="M10.687 109.812c1.364 0 2.469 1.12 2.469 2.5 0 1.381-1.105 2.5-2.469 2.5-1.363 0-2.468-1.119-2.468-2.5 0-1.38 1.105-2.5 2.468-2.5zM10.687 132.843c1.364 0 2.469 1.12 2.469 2.5 0 1.381-1.105 2.5-2.469 2.5-1.363 0-2.468-1.119-2.468-2.5 0-1.38 1.105-2.5 2.468-2.5zM10.687 155.906c1.364 0 2.469 1.119 2.469 2.5s-1.105 2.5-2.469 2.5c-1.363 0-2.468-1.119-2.468-2.5s1.105-2.5 2.468-2.5zM10.687 178.937c1.364 0 2.469 1.12 2.469 2.5 0 1.381-1.105 2.5-2.469 2.5-1.363 0-2.468-1.119-2.468-2.5 0-1.38 1.105-2.5 2.468-2.5zM10.687 202c1.364 0 2.469 1.119 2.469 2.5 0 1.38-1.105 2.5-2.469 2.5-1.363 0-2.468-1.12-2.468-2.5 0-1.381 1.105-2.5 2.468-2.5z"/><path fill-rule="evenodd" d="M9.219 31.625h1.968V91.75H9.219V31.625z"/><text font-family="SFUIText" transform="matrix(.98231 0 0 1.0153 3.02 20.206)" font-size="15.759">02</text></svg>