<svg xmlns="http://www.w3.org/2000/svg" width="19" height="206"><path fill-rule="evenodd" opacity=".502" d="M9.172 132a2.515 2.515 0 1 1 0 5.03 2.515 2.515 0 0 1 0-5.03zM9.172 155.156c1.389 0 2.515 1.112 2.515 2.484 0 1.372-1.126 2.485-2.515 2.485-1.39 0-2.516-1.113-2.516-2.485 0-1.372 1.126-2.484 2.516-2.484zM9.984 178a2.515 2.515 0 1 1 .002 5.03 2.515 2.515 0 0 1-.002-5.03zM9.984 201a2.508 2.508 0 0 1 2.516 2.5c0 1.381-1.126 2.5-2.516 2.5a2.507 2.507 0 0 1-2.515-2.5c0-1.381 1.126-2.5 2.515-2.5zM9.984 109a2.508 2.508 0 0 1 2.516 2.5c0 1.381-1.126 2.5-2.516 2.5a2.507 2.507 0 0 1-2.515-2.5c0-1.381 1.126-2.5 2.515-2.5z"/><path fill-rule="evenodd" d="M8.719 30.625h1.968V90.75H8.719V30.625z"/><text font-family="SFUIText" transform="matrix(.98932 0 0 1.01504 2.594 20.203)" font-size="15.763">05</text></svg>